<?xml version="1.0" encoding="UTF-8"?> <svg xmlns="http://www.w3.org/2000/svg" width="108" height="108" viewBox="0 0 108 108" fill="none"><g clip-path="url(#clip0_485_5476)"><path d="M3.9 49.12H16.25C17.28 49.12 18.28 48.71 19.01 47.98L47.99 19C48.72 18.27 49.13 17.28 49.13 16.24V3.9C49.13 1.75 47.38 0 45.23 0H3.9C1.75 0 0 1.75 0 3.9V45.23C0 47.38 1.75 49.13 3.9 49.13V49.12Z" fill="white"></path><path d="M103.28 49.12H90.9298C89.8998 49.12 88.8998 48.71 88.1698 47.98L59.1898 19C58.4598 18.27 58.0498 17.28 58.0498 16.24V3.9C58.0498 1.75 59.7998 0 61.9498 0H103.28C105.43 0 107.18 1.75 107.18 3.9V45.23C107.18 47.38 105.43 49.13 103.28 49.13V49.12Z" fill="white"></path><path d="M3.9 58.05H16.25C17.28 58.05 18.28 58.46 19.01 59.19L47.99 88.17C48.72 88.9 49.13 89.89 49.13 90.93V103.28C49.13 105.43 47.38 107.18 45.23 107.18H3.9C1.75 107.18 0 105.43 0 103.28V61.95C0 59.8 1.75 58.05 3.9 58.05Z" fill="white"></path><path d="M103.28 58.05H90.9298C89.8998 58.05 88.8998 58.46 88.1698 59.19L59.1898 88.17C58.4598 88.9 58.0498 89.89 58.0498 90.93V103.28C58.0498 105.43 59.7998 107.18 61.9498 107.18H103.28C105.43 107.18 107.18 105.43 107.18 103.28V61.95C107.18 59.8 105.43 58.05 103.28 58.05Z" fill="white"></path><path d="M53.5898 75.92C65.9223 75.92 75.9198 65.9225 75.9198 53.59C75.9198 41.2575 65.9223 31.26 53.5898 31.26C41.2572 31.26 31.2598 41.2575 31.2598 53.59C31.2598 65.9225 41.2572 75.92 53.5898 75.92Z" fill="white"></path></g><defs><clipPath id="clip0_485_5476"><rect width="107.18" height="107.18" fill="white"></rect></clipPath></defs></svg> 