<svg width="210" height="210" viewBox="0 0 210 210" fill="none" xmlns="http://www.w3.org/2000/svg">
<g clip-path="url(#clip0_78_150)">
<path d="M108.179 87C108.062 87.8166 108 88.6511 108 89.5C108 90.8522 108.153 92.1685 108.443 93.4326C106.315 92.5114 103.967 92 101.5 92C91.835 92 84 99.835 84 109.5C84 119.165 91.835 127 101.5 127C111.165 127 119 119.165 119 109.5C119 108.147 118.846 106.831 118.556 105.566C120.685 106.488 123.032 107 125.5 107C126.699 107 127.869 106.879 129 106.649V131H75V87H108.179Z" fill="white"/>
<path d="M109.661 82.0508C108.596 84.3111 108 86.8358 108 89.5C108 89.8337 108.009 90.1651 108.028 90.4941L102.242 91.9395C102.083 91.9792 101.916 91.9792 101.757 91.9395L88.4419 88.6143C87.6999 88.4289 87.4322 87.5129 87.9576 86.957L92.2994 82.3633C92.4882 82.1636 92.7511 82.0508 93.0259 82.0508H109.661Z" fill="white"/>
<path d="M122.129 80.5443C122.512 79.866 123.488 79.866 123.871 80.5443L127.191 86.4297C127.28 86.5885 127.411 86.7199 127.57 86.8094L133.456 90.129C134.134 90.5116 134.134 91.4884 133.456 91.871L127.57 95.1906C127.411 95.2801 127.28 95.4115 127.191 95.5703L123.871 101.456C123.488 102.134 122.512 102.134 122.129 101.456L118.809 95.5703C118.72 95.4115 118.589 95.2801 118.43 95.1906L112.544 91.871C111.866 91.4884 111.866 90.5116 112.544 90.129L118.43 86.8094C118.589 86.7199 118.72 86.5885 118.809 86.4297L122.129 80.5443Z" fill="white"/>
<circle cx="101.5" cy="109.5" r="10.5" fill="white"/>
</g>
<defs>
<clipPath id="clip0_78_150">
<rect width="59" height="51" fill="white" transform="translate(75 80)"/>
</clipPath>
</defs>
</svg>
