<svg width="353" height="90" viewBox="0 0 353 90" fill="none" xmlns="http://www.w3.org/2000/svg">
<g clip-path="url(#clip0_76_75)">
<mask id="mask0_76_75" style="mask-type:luminance" maskUnits="userSpaceOnUse" x="0" y="0" width="90" height="90">
<path d="M45 90C69.8528 90 90 69.8528 90 45C90 20.1472 69.8528 0 45 0C20.1472 0 0 20.1472 0 45C0 69.8528 20.1472 90 45 90Z" fill="white"/>
</mask>
<g mask="url(#mask0_76_75)">
<path d="M0 22.5L45 16.875L90 22.5V67.5L45 73.125L0 67.5V22.5Z" fill="#FFDA44"/>
<path d="M0 0H90V22.5H0V0ZM0 67.5H90V90H0V67.5Z" fill="#D80027"/>
<path d="M25.3125 53.4375H22.5V39.375H25.3125V53.4375ZM47.8125 53.4375H50.625V39.375H47.8125V53.4375Z" fill="#EEEEEE"/>
<path d="M36.5625 57.6562C41.2224 57.6562 45 55.1379 45 52.0312C45 48.9246 41.2224 46.4062 36.5625 46.4062C31.9026 46.4062 28.125 48.9246 28.125 52.0312C28.125 55.1379 31.9026 57.6562 36.5625 57.6562Z" fill="#EEEEEE"/>
<path d="M25.3125 35.1562C25.3125 34.3796 24.6829 33.75 23.9062 33.75C23.1296 33.75 22.5 34.3796 22.5 35.1562V36.5625C22.5 37.3392 23.1296 37.9688 23.9062 37.9688C24.6829 37.9688 25.3125 37.3392 25.3125 36.5625V35.1562Z" fill="#D80027"/>
<path d="M50.625 35.1562C50.625 34.3796 49.9954 33.75 49.2188 33.75C48.4421 33.75 47.8125 34.3796 47.8125 35.1562V36.5625C47.8125 37.3392 48.4421 37.9688 49.2188 37.9688C49.9954 37.9688 50.625 37.3392 50.625 36.5625V35.1562Z" fill="#D80027"/>
<path d="M36.5625 47.8125V52.0312C36.5625 53.1501 37.007 54.2232 37.7981 55.0144C38.5893 55.8055 39.6624 56.25 40.7812 56.25C41.9001 56.25 42.9732 55.8055 43.7644 55.0144C44.5555 54.2232 45 53.1501 45 52.0312V47.8125H40.7812H36.5625Z" fill="#D80027"/>
<path d="M25.3125 36.5625H22.5C21.7233 36.5625 21.0938 37.1921 21.0938 37.9688C21.0938 38.7454 21.7233 39.375 22.5 39.375H25.3125C26.0892 39.375 26.7188 38.7454 26.7188 37.9688C26.7188 37.1921 26.0892 36.5625 25.3125 36.5625Z" fill="#FF9811"/>
<path d="M50.625 36.5625H47.8125C47.0358 36.5625 46.4062 37.1921 46.4062 37.9688C46.4062 38.7454 47.0358 39.375 47.8125 39.375H50.625C51.4017 39.375 52.0312 38.7454 52.0312 37.9688C52.0312 37.1921 51.4017 36.5625 50.625 36.5625Z" fill="#FF9811"/>
<path d="M25.3125 53.4375H22.5C21.7233 53.4375 21.0938 54.0671 21.0938 54.8438C21.0938 55.6204 21.7233 56.25 22.5 56.25H25.3125C26.0892 56.25 26.7188 55.6204 26.7188 54.8438C26.7188 54.0671 26.0892 53.4375 25.3125 53.4375Z" fill="#FF9811"/>
<path d="M50.625 53.4375H47.8125C47.0358 53.4375 46.4062 54.0671 46.4062 54.8438C46.4062 55.6204 47.0358 56.25 47.8125 56.25H50.625C51.4017 56.25 52.0312 55.6204 52.0312 54.8438C52.0312 54.0671 51.4017 53.4375 50.625 53.4375Z" fill="#FF9811"/>
<path d="M28.125 47.8125V52.0312C28.125 53.4375 28.8281 54.4922 29.707 55.3711L30.5859 54.3164L31.4648 56.0742C32.0422 56.2158 32.6453 56.2158 33.2227 56.0742L34.1016 54.3164L34.9805 55.3711C36.0352 54.4922 36.5625 53.4375 36.5625 52.0312V47.8125H34.9805L34.1016 49.2187L33.2227 47.8125H31.4648L30.5859 49.2187L29.707 47.8125H28.125Z" fill="#FF9811"/>
<path d="M21.4453 44.2969H51.6797ZM21.4453 48.5156H26.3672ZM46.7578 48.5156H51.6797Z" fill="black"/>
<path d="M21.4453 43.5938C21.2588 43.5938 21.08 43.6678 20.9481 43.7997C20.8163 43.9316 20.7422 44.1104 20.7422 44.2969C20.7422 44.4834 20.8163 44.6622 20.9481 44.7941C21.08 44.9259 21.2588 45 21.4453 45H51.6797C51.8662 45 52.045 44.9259 52.1769 44.7941C52.3087 44.6622 52.3828 44.4834 52.3828 44.2969C52.3828 44.1104 52.3087 43.9316 52.1769 43.7997C52.045 43.6678 51.8662 43.5938 51.6797 43.5938H21.4453ZM21.4453 47.8125C21.2588 47.8125 21.08 47.8866 20.9481 48.0184C20.8163 48.1503 20.7422 48.3291 20.7422 48.5156C20.7422 48.7021 20.8163 48.8809 20.9481 49.0128C21.08 49.1447 21.2588 49.2188 21.4453 49.2188H26.3672C26.5537 49.2188 26.7325 49.1447 26.8644 49.0128C26.9962 48.8809 27.0703 48.7021 27.0703 48.5156C27.0703 48.3291 26.9962 48.1503 26.8644 48.0184C26.7325 47.8866 26.5537 47.8125 26.3672 47.8125H21.4453ZM46.7578 47.8125C46.5713 47.8125 46.3925 47.8866 46.2606 48.0184C46.1288 48.1503 46.0547 48.3291 46.0547 48.5156C46.0547 48.7021 46.1288 48.8809 46.2606 49.0128C46.3925 49.1447 46.5713 49.2188 46.7578 49.2188H51.6797C51.8662 49.2188 52.045 49.1447 52.1769 49.0128C52.3087 48.8809 52.3828 48.7021 52.3828 48.5156C52.3828 48.3291 52.3087 48.1503 52.1769 48.0184C52.045 47.8866 51.8662 47.8125 51.6797 47.8125H46.7578Z" fill="#D80027"/>
<path d="M34.4531 29.5312C33.2227 29.5312 32.168 30.4102 31.8164 31.4648L30.9375 31.2891C29.3555 31.2891 28.125 32.5195 28.125 34.1016C28.125 35.6836 29.3555 36.9141 30.9375 36.9141C32.168 36.9141 33.2227 36.2109 33.5742 34.9805C34.0869 35.1654 34.6422 35.1974 35.1728 35.0726C35.7033 34.9477 36.1861 34.6715 36.5625 34.2773C36.9389 34.6715 37.4217 34.9477 37.9522 35.0726C38.4828 35.1974 39.0381 35.1654 39.5508 34.9805C39.7213 35.5129 40.0467 35.9824 40.4853 36.329C40.924 36.6757 41.456 36.8837 42.0134 36.9266C42.5708 36.9695 43.1284 36.8453 43.6149 36.5699C44.1014 36.2944 44.4947 35.8802 44.7448 35.3802C44.9948 34.8802 45.0901 34.3169 45.0186 33.7625C44.947 33.208 44.7118 32.6874 44.3431 32.2672C43.9743 31.847 43.4887 31.5463 42.9482 31.4034C42.4077 31.2604 41.8369 31.2818 41.3086 31.4648C41.1391 31.0091 40.8543 30.6051 40.482 30.2923C40.1098 29.9795 39.6628 29.7685 39.1847 29.68C38.7066 29.5914 38.2137 29.6283 37.7541 29.7871C37.2945 29.9459 36.884 30.2211 36.5625 30.5859C36.0352 29.8828 35.332 29.5312 34.4531 29.5312ZM34.4531 30.9375C35.332 30.9375 35.8594 31.6406 35.8594 32.3437C35.8594 33.2227 35.332 33.75 34.4531 33.75C33.75 33.75 33.0469 33.2227 33.0469 32.3437C33.0469 31.6406 33.75 30.9375 34.4531 30.9375ZM38.6719 30.9375C39.5508 30.9375 40.0781 31.6406 40.0781 32.3437C40.0781 33.2227 39.5508 33.75 38.6719 33.75C37.9688 33.75 37.2656 33.2227 37.2656 32.3437C37.2656 31.6406 37.9688 30.9375 38.6719 30.9375ZM30.9375 32.6953L31.6406 32.8711L32.3438 34.2773C32.3438 34.9805 31.6406 35.5078 30.9375 35.5078C30.2344 35.5078 29.5312 34.9805 29.5312 34.1016C29.5312 33.3984 30.2344 32.6953 30.9375 32.6953ZM42.1875 32.6953C43.0664 32.6953 43.5938 33.3984 43.5938 34.1016C43.5938 34.9805 43.0664 35.5078 42.1875 35.5078C41.4844 35.5078 40.7812 34.9805 40.7812 34.2773L41.4844 32.8711L42.1875 32.6953Z" fill="#EEEEEE"/>
<path d="M35.1562 28.125H37.9688V33.75H35.1562V28.125Z" fill="#FF9811"/>
<path d="M36.5625 39.375H45V47.8125H36.5625V39.375Z" fill="#EEEEEE"/>
<path d="M43.5938 36.5625L42.1875 37.9688H30.9375L29.5312 36.5625C29.5312 34.2773 32.6953 32.3438 36.5625 32.3438C40.4297 32.3438 43.5938 34.2773 43.5938 36.5625ZM28.125 39.375H36.5625V47.8125H28.125V39.375Z" fill="#D80027"/>
<path d="M42.5391 42.5391C42.5391 41.5682 41.7521 40.7812 40.7812 40.7812C39.8104 40.7812 39.0234 41.5682 39.0234 42.5391V44.6484C39.0234 45.6193 39.8104 46.4062 40.7812 46.4062C41.7521 46.4062 42.5391 45.6193 42.5391 44.6484V42.5391Z" fill="#D80027"/>
<path d="M29.5312 40.7812V42.1875H30.9375V45H29.5312V46.4062H35.1562V45H33.75V42.1875H35.1562V40.7812H29.5312ZM30.9375 37.9688H42.1875V39.375H30.9375V37.9688Z" fill="#FF9811"/>
<path d="M32.6953 36.5625C33.2778 36.5625 33.75 36.0903 33.75 35.5078C33.75 34.9253 33.2778 34.4531 32.6953 34.4531C32.1128 34.4531 31.6406 34.9253 31.6406 35.5078C31.6406 36.0903 32.1128 36.5625 32.6953 36.5625Z" fill="#FFDA44"/>
<path d="M36.5625 36.5625C37.145 36.5625 37.6172 36.0903 37.6172 35.5078C37.6172 34.9253 37.145 34.4531 36.5625 34.4531C35.98 34.4531 35.5078 34.9253 35.5078 35.5078C35.5078 36.0903 35.98 36.5625 36.5625 36.5625Z" fill="#FFDA44"/>
<path d="M40.4297 36.5625C41.0122 36.5625 41.4844 36.0903 41.4844 35.5078C41.4844 34.9253 41.0122 34.4531 40.4297 34.4531C39.8472 34.4531 39.375 34.9253 39.375 35.5078C39.375 36.0903 39.8472 36.5625 40.4297 36.5625Z" fill="#FFDA44"/>
<path d="M29.707 47.8125V55.3711C30.2321 55.7356 30.8332 55.976 31.4648 56.0742V47.8125H29.707ZM33.2227 47.8125V56.0742C33.8543 55.976 34.4554 55.7356 34.9805 55.3711V47.8125H33.2227Z" fill="#D80027"/>
<path d="M36.5625 50.625C38.1158 50.625 39.375 49.3658 39.375 47.8125C39.375 46.2592 38.1158 45 36.5625 45C35.0092 45 33.75 46.2592 33.75 47.8125C33.75 49.3658 35.0092 50.625 36.5625 50.625Z" fill="#338AF3"/>
<path d="M50.625 56.25H47.8125C47.0358 56.25 46.4062 56.8796 46.4062 57.6562C46.4062 58.4329 47.0358 59.0625 47.8125 59.0625H50.625C51.4017 59.0625 52.0312 58.4329 52.0312 57.6562C52.0312 56.8796 51.4017 56.25 50.625 56.25Z" fill="#338AF3"/>
<path d="M25.3125 56.25H22.5C21.7233 56.25 21.0938 56.8796 21.0938 57.6562C21.0938 58.4329 21.7233 59.0625 22.5 59.0625H25.3125C26.0892 59.0625 26.7188 58.4329 26.7188 57.6562C26.7188 56.8796 26.0892 56.25 25.3125 56.25Z" fill="#338AF3"/>
</g>
</g>
<g clip-path="url(#clip1_76_75)">
<rect x="58" width="90" height="90" rx="45" fill="white"/>
<rect x="58" y="-3" width="30" height="101" fill="#0052B4"/>
<rect x="118" y="-3" width="30" height="101" fill="#D80027"/>
</g>
<g clip-path="url(#clip2_76_75)">
<mask id="mask1_76_75" style="mask-type:luminance" maskUnits="userSpaceOnUse" x="129" y="0" width="90" height="90">
<path d="M174 90C198.853 90 219 69.8528 219 45C219 20.1472 198.853 0 174 0C149.147 0 129 20.1472 129 45C129 69.8528 149.147 90 174 90Z" fill="white"/>
</mask>
<g mask="url(#mask1_76_75)">
<path d="M129 90H158.355L165.018 44.2441L158.355 0H129V90Z" fill="#6DA544"/>
<path d="M219 0H158.355V90H219V0Z" fill="#D80027"/>
<path d="M158.355 60.6445C166.996 60.6445 174 53.6402 174 45C174 36.3598 166.996 29.3555 158.355 29.3555C149.715 29.3555 142.711 36.3598 142.711 45C142.711 53.6402 149.715 60.6445 158.355 60.6445Z" fill="#FFDA44"/>
<path d="M149.547 37.1777V46.9336C149.547 49.2669 150.474 51.5047 152.124 53.1546C153.774 54.8045 156.011 55.7314 158.345 55.7314C160.678 55.7314 162.916 54.8045 164.566 53.1546C166.216 51.5047 167.143 49.2669 167.143 46.9336V37.1602H149.564L149.547 37.1777Z" fill="#D80027"/>
<path d="M158.357 49.8867C156.74 49.8867 155.422 48.5684 155.422 46.9512V43.0664H161.293V46.9336C161.293 48.5508 159.975 49.8691 158.357 49.8691V49.8867Z" fill="#EEEEEE"/>
</g>
</g>
<g clip-path="url(#clip3_76_75)">
<mask id="mask2_76_75" style="mask-type:luminance" maskUnits="userSpaceOnUse" x="192" y="0" width="90" height="90">
<path d="M237 90C261.853 90 282 69.8528 282 45C282 20.1472 261.853 0 237 0C212.147 0 192 20.1472 192 45C192 69.8528 212.147 90 237 90Z" fill="white"/>
</mask>
<g mask="url(#mask2_76_75)">
<path d="M221.355 0H252.645L257.197 44.3496L252.645 90H221.355L216.117 45.457L221.355 0Z" fill="#EEEEEE"/>
<path d="M192 0H221.355V90H192V0Z" fill="#6DA544"/>
<path d="M252.645 0H282V90H252.645V0Z" fill="#D80027"/>
</g>
</g>
<g clip-path="url(#clip4_76_75)">
<rect x="263" width="90" height="90" rx="45" fill="white"/>
<rect x="358" width="30" height="101" transform="rotate(90 358 0)" fill="#1D1A1A"/>
<rect x="358" y="30" width="30" height="101" transform="rotate(90 358 30)" fill="#D92E35"/>
<rect x="358" y="60" width="30" height="101" transform="rotate(90 358 60)" fill="#E3D819"/>
</g>
<defs>
<clipPath id="clip0_76_75">
<rect width="90" height="90" fill="white"/>
</clipPath>
<clipPath id="clip1_76_75">
<rect x="58" width="90" height="90" rx="45" fill="white"/>
</clipPath>
<clipPath id="clip2_76_75">
<rect width="90" height="90" fill="white" transform="translate(129)"/>
</clipPath>
<clipPath id="clip3_76_75">
<rect width="90" height="90" fill="white" transform="translate(192)"/>
</clipPath>
<clipPath id="clip4_76_75">
<rect x="263" width="90" height="90" rx="45" fill="white"/>
</clipPath>
</defs>
</svg>
