<svg width="533" height="134" viewBox="0 0 533 134" fill="none" xmlns="http://www.w3.org/2000/svg">
<path fill-rule="evenodd" clip-rule="evenodd" d="M0.405303 13.9938C32.8295 2.20623 72.9545 1.79965 107 13.9938V75.7628C104.163 96.0824 81.0606 113.557 53.9053 129C25.5341 112.744 6.07955 97.7079 0 75.7628L0.405303 13.9938ZM92.4091 24.5581C76.6023 17.6514 30.3977 18.0576 14.5909 24.5581V76.578C25.5341 94.0504 36.8826 101.772 53.9053 112.34C69.7121 102.585 82.2765 94.0504 92.4091 76.578V24.5581Z" fill="white"/>
<path d="M159.336 96.96C155.432 96.96 151.848 96.48 148.584 95.52C145.32 94.496 142.376 92.992 139.752 91.008C137.128 89.024 134.792 86.624 132.744 83.808L140.904 74.592C144.04 78.944 147.112 81.952 150.12 83.616C153.128 85.28 156.52 86.112 160.296 86.112C162.472 86.112 164.456 85.792 166.248 85.152C168.04 84.448 169.448 83.52 170.472 82.368C171.496 81.152 172.008 79.776 172.008 78.24C172.008 77.152 171.784 76.16 171.336 75.264C170.952 74.304 170.344 73.472 169.512 72.768C168.68 72 167.656 71.296 166.44 70.656C165.224 70.016 163.848 69.472 162.312 69.024C160.776 68.576 159.08 68.16 157.224 67.776C153.704 67.072 150.632 66.144 148.008 64.992C145.384 63.776 143.176 62.304 141.384 60.576C139.592 58.784 138.28 56.8 137.448 54.624C136.616 52.384 136.2 49.856 136.2 47.04C136.2 44.224 136.808 41.632 138.024 39.264C139.304 36.896 141.032 34.848 143.208 33.12C145.384 31.392 147.912 30.048 150.792 29.088C153.672 28.128 156.776 27.648 160.104 27.648C163.88 27.648 167.24 28.096 170.184 28.992C173.192 29.888 175.816 31.232 178.056 33.024C180.36 34.752 182.248 36.864 183.72 39.36L175.464 47.52C174.184 45.536 172.744 43.904 171.144 42.624C169.544 41.28 167.816 40.288 165.96 39.648C164.104 38.944 162.152 38.592 160.104 38.592C157.8 38.592 155.784 38.912 154.056 39.552C152.392 40.192 151.08 41.12 150.12 42.336C149.16 43.488 148.68 44.896 148.68 46.56C148.68 47.84 148.968 48.992 149.544 50.016C150.12 50.976 150.92 51.84 151.944 52.608C153.032 53.376 154.408 54.048 156.072 54.624C157.736 55.2 159.624 55.712 161.736 56.16C165.256 56.864 168.424 57.824 171.24 59.04C174.056 60.192 176.456 61.6 178.44 63.264C180.424 64.864 181.928 66.72 182.952 68.832C183.976 70.88 184.488 73.184 184.488 75.744C184.488 80.16 183.432 83.968 181.32 87.168C179.272 90.304 176.36 92.736 172.584 94.464C168.808 96.128 164.392 96.96 159.336 96.96ZM201.572 96V32.544H213.38V96H201.572ZM191.588 56.352V45.408H224.42V56.352H191.588ZM252.047 96.96C247.887 96.96 244.111 95.808 240.719 93.504C237.327 91.2 234.607 88.064 232.559 84.096C230.511 80.128 229.487 75.616 229.487 70.56C229.487 65.504 230.511 60.992 232.559 57.024C234.607 53.056 237.391 49.952 240.911 47.712C244.431 45.472 248.399 44.352 252.815 44.352C255.375 44.352 257.711 44.736 259.823 45.504C261.935 46.208 263.791 47.232 265.391 48.576C266.991 49.92 268.303 51.456 269.327 53.184C270.415 54.912 271.151 56.768 271.535 58.752L268.943 58.08V45.408H280.847V96H268.847V83.904L271.631 83.424C271.183 85.152 270.351 86.848 269.135 88.512C267.983 90.112 266.511 91.552 264.719 92.832C262.991 94.048 261.039 95.04 258.863 95.808C256.751 96.576 254.479 96.96 252.047 96.96ZM255.311 86.496C258.063 86.496 260.495 85.824 262.607 84.48C264.719 83.136 266.351 81.28 267.503 78.912C268.719 76.48 269.327 73.696 269.327 70.56C269.327 67.488 268.719 64.768 267.503 62.4C266.351 60.032 264.719 58.176 262.607 56.832C260.495 55.488 258.063 54.816 255.311 54.816C252.559 54.816 250.127 55.488 248.015 56.832C245.967 58.176 244.367 60.032 243.215 62.4C242.063 64.768 241.487 67.488 241.487 70.56C241.487 73.696 242.063 76.48 243.215 78.912C244.367 81.28 245.967 83.136 248.015 84.48C250.127 85.824 252.559 86.496 255.311 86.496ZM300.009 96V32.544H311.817V96H300.009ZM290.025 56.352V45.408H322.857V56.352H290.025ZM349.418 96.96C345.77 96.96 342.602 96.16 339.914 94.56C337.226 92.896 335.178 90.56 333.77 87.552C332.362 84.48 331.658 80.832 331.658 76.608V45.408H343.466V74.112C343.466 76.8 343.882 79.104 344.714 81.024C345.546 82.88 346.762 84.32 348.362 85.344C349.962 86.368 351.882 86.88 354.122 86.88C355.786 86.88 357.29 86.624 358.634 86.112C360.042 85.536 361.258 84.768 362.282 83.808C363.306 82.784 364.106 81.6 364.682 80.256C365.258 78.848 365.546 77.344 365.546 75.744V45.408H377.354V96H365.834L365.642 85.44L367.754 84.288C366.986 86.72 365.674 88.896 363.818 90.816C362.026 92.672 359.882 94.176 357.386 95.328C354.89 96.416 352.234 96.96 349.418 96.96ZM391.001 96V45.408H402.617L402.809 55.584L400.889 56.352C401.465 54.688 402.329 53.152 403.481 51.744C404.633 50.272 406.009 49.024 407.609 48C409.209 46.912 410.905 46.08 412.697 45.504C414.489 44.864 416.313 44.544 418.169 44.544C420.921 44.544 423.353 44.992 425.465 45.888C427.641 46.72 429.433 48.064 430.841 49.92C432.313 51.776 433.401 54.144 434.105 57.024L432.281 56.64L433.049 55.104C433.753 53.568 434.745 52.192 436.025 50.976C437.305 49.696 438.745 48.576 440.345 47.616C441.945 46.592 443.609 45.824 445.337 45.312C447.129 44.8 448.889 44.544 450.617 44.544C454.457 44.544 457.657 45.312 460.217 46.848C462.777 48.384 464.697 50.72 465.977 53.856C467.257 56.992 467.897 60.864 467.897 65.472V96H455.993V66.24C455.993 63.68 455.641 61.568 454.937 59.904C454.297 58.24 453.273 57.024 451.865 56.256C450.521 55.424 448.825 55.008 446.777 55.008C445.177 55.008 443.641 55.296 442.169 55.872C440.761 56.384 439.545 57.152 438.521 58.176C437.497 59.136 436.697 60.256 436.121 61.536C435.545 62.816 435.257 64.224 435.257 65.76V96H423.353V66.144C423.353 63.712 423.001 61.696 422.297 60.096C421.593 58.432 420.569 57.184 419.225 56.352C417.881 55.456 416.249 55.008 414.329 55.008C412.729 55.008 411.225 55.296 409.817 55.872C408.409 56.384 407.193 57.12 406.169 58.08C405.145 59.04 404.345 60.16 403.769 61.44C403.193 62.72 402.905 64.128 402.905 65.664V96H391.001Z" fill="white"/>
</svg>
