<?xml version="1.0" encoding="UTF-8"?> <svg xmlns="http://www.w3.org/2000/svg" width="109" height="109" viewBox="0 0 109 109" fill="none"><g clip-path="url(#clip0_485_5472)"><path d="M92.8298 54.18C96.1498 52.14 98.9198 50.06 100.88 48.05C111.56 37.06 111.56 19.23 100.88 8.24C90.1998 -2.75 72.8698 -2.75 62.1898 8.24C59.6598 10.85 57.0098 14.89 54.4498 19.76C51.8798 14.89 49.2398 10.84 46.7098 8.24C36.0298 -2.75 18.6998 -2.75 8.01977 8.24C-2.66023 19.23 -2.66023 37.06 8.01977 48.05C9.97977 50.07 12.7498 52.14 16.0698 54.18C12.7498 56.22 9.97977 58.3 8.01977 60.31C-2.66023 71.3 -2.66023 89.13 8.01977 100.12C18.6998 111.11 36.0298 111.11 46.7098 100.12C49.2398 97.51 51.8898 93.47 54.4498 88.6C57.0198 93.47 59.6598 97.51 62.1898 100.12C72.8698 111.11 90.1998 111.11 100.88 100.12C111.56 89.13 111.56 71.3 100.88 60.31C98.9198 58.29 96.1498 56.22 92.8298 54.18ZM58.5698 58.42L54.4498 82.28L50.3298 58.42L27.1398 54.18L50.3298 49.94L54.4498 26.08L58.5698 49.94L81.7598 54.18L58.5698 58.42Z" fill="white"></path></g><defs><clipPath id="clip0_485_5472"><rect width="108.89" height="108.36" fill="white"></rect></clipPath></defs></svg> 