<?xml version="1.0" encoding="UTF-8"?> <svg xmlns="http://www.w3.org/2000/svg" width="109" height="104" viewBox="0 0 109 104" fill="none"><g clip-path="url(#clip0_485_5485)"><path d="M81.01 0H27.75C12.43 0 0 12.42 0 27.75V76.15C0 91.48 12.43 103.9 27.75 103.9H81.01C96.34 103.9 108.76 91.48 108.76 76.15V27.75C108.76 12.42 96.34 0 81.01 0ZM71.92 70.48C48.26 92.72 21.82 103.02 12.85 93.48C3.89 83.94 15.8 58.18 39.45 35.94C63.11 13.7 89.55 3.4 98.51 12.94C107.48 22.47 95.57 48.23 71.92 70.47V70.48Z" fill="white"></path></g><defs><clipPath id="clip0_485_5485"><rect width="108.76" height="103.9" fill="white"></rect></clipPath></defs></svg> 