<svg width="109" height="109" viewBox="0 0 109 109" fill="none" xmlns="http://www.w3.org/2000/svg">
<path d="M92.94 15.95C82.67 5.66 68.99 0 54.45 0C39.91 0 26.23 5.66 15.95 15.95C5.66 26.23 0 39.9 0 54.45C0 69 5.66 82.66 15.95 92.95C26.23 103.23 39.91 108.9 54.45 108.9C68.99 108.9 82.67 103.24 92.95 92.95C103.23 82.67 108.9 68.99 108.9 54.45C108.9 39.91 103.24 26.23 92.95 15.95H92.94ZM106.73 53.38H106.57C100.57 53.38 95.58 48.94 94.64 43.01C93.02 32.88 89.24 23.57 83.61 16.06C83.48 15.89 83.34 15.72 83.21 15.55C84.6 14.98 85.97 14.38 87.29 13.72C88.73 14.88 90.12 16.12 91.44 17.45C101.07 27.08 106.46 39.8 106.73 53.37V53.38ZM81.13 92.52C78.45 91.53 75.65 90.69 72.75 90.01C76.4 80.41 78.44 68.34 78.55 55.51H79.84C87.56 55.51 93.37 62.69 91.61 70.21C89.64 78.61 86.09 86.27 81.16 92.52H81.14H81.13ZM27.74 92.52C22.8 86.27 19.25 78.61 17.28 70.21C15.52 62.69 21.33 55.52 29.05 55.52H30.34C30.45 68.35 32.49 80.42 36.14 90.02C33.23 90.7 30.44 91.54 27.76 92.53H27.74V92.52ZM27.76 16.37C30.44 17.36 33.24 18.2 36.14 18.88C32.49 28.48 30.45 40.55 30.34 53.38H29.05C21.33 53.38 15.52 46.2 17.28 38.69C19.25 30.29 22.8 22.63 27.74 16.38H27.76V16.37ZM32.48 55.57C37.94 55.84 43.04 58.06 46.94 61.96C51.09 66.11 53.38 71.64 53.38 77.51V87.98C48.22 88.04 43.15 88.59 38.26 89.58C34.63 80.19 32.59 68.27 32.48 55.57ZM53.38 18.78C48.49 18.72 43.69 18.21 39.06 17.29C39.08 17.24 39.1 17.17 39.13 17.12C43.05 8.06 48.07 2.81 53.39 2.19V18.78H53.38ZM38.26 19.32C43.15 20.32 48.21 20.86 53.38 20.92V31.39C53.38 37.27 51.09 42.79 46.94 46.94C43.04 50.84 37.94 53.06 32.48 53.33C32.59 40.63 34.63 28.71 38.26 19.32ZM53.38 90.11V106.69C48.07 106.07 43.04 100.83 39.12 91.76C39.1 91.7 39.08 91.64 39.05 91.59C43.68 90.67 48.48 90.17 53.38 90.11ZM55.51 90.11C60.4 90.17 65.2 90.68 69.84 91.59C69.82 91.65 69.8 91.71 69.77 91.76C65.85 100.82 60.83 106.07 55.51 106.69V90.11ZM70.63 89.58C65.75 88.59 60.68 88.04 55.51 87.98V77.51C55.51 71.63 57.8 66.11 61.95 61.96C65.85 58.07 70.95 55.84 76.41 55.57C76.3 68.27 74.26 80.19 70.63 89.58ZM61.95 46.94C57.8 42.79 55.51 37.26 55.51 31.39V20.92C60.67 20.86 65.74 20.31 70.63 19.32C74.26 28.71 76.3 40.63 76.41 53.33C70.95 53.06 65.85 50.84 61.95 46.94ZM55.51 18.78V2.2C60.83 2.82 65.85 8.07 69.77 17.13C69.79 17.18 69.81 17.25 69.84 17.3C65.2 18.22 60.41 18.72 55.52 18.79L55.51 18.78ZM71.73 16.28C69.23 10.49 66.23 6.14 62.95 3.4C69.11 5.24 74.83 9.06 79.7 14.64C77.23 15.52 74.65 16.27 71.97 16.88C71.89 16.69 71.82 16.47 71.74 16.28H71.73ZM37.16 16.28C37.08 16.47 37.01 16.68 36.93 16.88C34.26 16.27 31.68 15.52 29.2 14.64C34.06 9.06 39.79 5.24 45.94 3.4C42.65 6.14 39.66 10.49 37.16 16.28ZM36.93 92.02C37.01 92.21 37.08 92.43 37.16 92.62C39.66 98.41 42.65 102.76 45.94 105.5C39.78 103.67 34.06 99.84 29.19 94.26C31.67 93.38 34.25 92.63 36.92 92.02H36.93ZM71.73 92.61C71.81 92.42 71.88 92.21 71.96 92.01C74.63 92.62 77.21 93.37 79.69 94.25C74.83 99.83 69.1 103.65 62.94 105.49C66.23 102.75 69.22 98.4 71.72 92.61H71.73ZM78.55 53.38C78.44 40.55 76.4 28.47 72.75 18.88C75.66 18.2 78.45 17.36 81.13 16.37H81.15C86.09 22.63 89.64 30.28 91.61 38.68C93.37 46.2 87.56 53.38 79.84 53.38H78.55ZM85.39 12.26C84.23 12.81 83.03 13.33 81.81 13.81C78.8 10.24 75.45 7.32 71.87 5.1C76.69 6.8 81.24 9.2 85.39 12.26ZM27.09 13.81C25.87 13.33 24.67 12.81 23.51 12.26C27.66 9.2 32.21 6.8 37.03 5.1C33.45 7.32 30.1 10.25 27.09 13.81ZM17.46 17.46C18.79 16.13 20.18 14.89 21.61 13.73C22.93 14.38 24.29 14.99 25.68 15.56C25.55 15.73 25.41 15.89 25.28 16.07C19.65 23.58 15.87 32.89 14.25 43.02C13.3 48.95 8.32 53.39 2.32 53.39H2.16C2.43 39.82 7.83 27.1 17.46 17.47V17.46ZM2.16 55.51H2.32C8.32 55.51 13.3 59.95 14.25 65.88C15.87 76.01 19.64 85.32 25.28 92.83C25.41 93 25.55 93.17 25.68 93.34C24.29 93.91 22.92 94.51 21.61 95.17C20.17 94.01 18.78 92.77 17.46 91.44C7.83 81.81 2.44 69.09 2.16 55.52V55.51ZM23.51 96.63C24.67 96.08 25.87 95.56 27.09 95.08C30.1 98.65 33.44 101.57 37.03 103.79C32.22 102.09 27.67 99.69 23.51 96.63ZM81.81 95.08C83.03 95.56 84.23 96.08 85.39 96.63C81.24 99.69 76.69 102.09 71.87 103.79C75.45 101.57 78.8 98.64 81.81 95.08ZM91.44 91.44C90.11 92.77 88.72 94.01 87.29 95.17C85.97 94.52 84.61 93.91 83.21 93.34C83.34 93.17 83.48 93.01 83.61 92.83C89.24 85.32 93.02 76.01 94.64 65.88C95.59 59.95 100.57 55.51 106.57 55.51H106.73C106.46 69.08 101.06 81.8 91.44 91.43V91.44Z" fill="white"/>
</svg>
