<svg width="509" height="436" viewBox="0 0 509 436" fill="none" xmlns="http://www.w3.org/2000/svg">
<path d="M366.577 110.481L326.51 136.013L164.241 244.643C152.622 251.852 129.684 264.167 102.639 254.655L14.4907 225.119C-2.73787 217.91 -7.54303 198.586 16.494 188.073L74.0895 162.541L269.914 77.9357L451.716 5.84986C473.752 -2.16392 514.816 -8.17142 508.31 31.8822C489.278 149.028 450.313 386.323 446.707 398.338C443.101 410.353 438.527 418.362 436.691 420.866C430.18 431.879 414.654 444.395 388.611 428.375L226.845 310.228C210.418 296.211 220.332 276.186 229.85 267.675L377.094 124.497C380.7 120.492 384.814 114.745 380.6 109.48C377.395 105.475 371.782 107.476 366.577 110.481Z" fill="white"/>
</svg>
